# xmcd
#
# Track frame offsets: 
#        183
#        14145
#        28520
#        42645
#        56725
#        70610
#        83710
#        97110
#        110628
#        125290
#        137638
#        150768
#        165338
#        179548
#        193713
#        206458
#        219813
#        231910
#
# Disc length: 3270 seconds
#
# Revision: 4
# Processed by: cddbd v1.5.2PL0 Copyright (c) Steve Scherf et al.
# Submitted via: ExactAudioCopyFreeDBPlugin 1.0
#
DISCID=f30cc412
DTITLE=Charley Patton - Pony Blues
DYEAR=1900
DGENRE=Blues
TTITLE0=Tom Rushen Blues
TTITLE1=A Spoonful Blues
TTITLE2=Shake It And Break It
TTITLE3=Mississippi Bo Weavil Blues
TTITLE4=Screamin' And Hollerin' The Blues
TTITLE5=Down The Dirt Road Blues
TTITLE6=Pony Blues
TTITLE7=Going To Move To Alabama
TTITLE8=Hammer Blues
TTITLE9=Rattlesnake Blues
TTITLE10=Running Wild Blues
TTITLE11=Moon Going Down
TTITLE12=Bird Nest Bound
TTITLE13=High Sheriff Blues
TTITLE14=Stone Pony Blues
TTITLE15=34 Blues
TTITLE16=Revenue Man Blues
TTITLE17=Poor Me
EXTD=
EXTT0=
EXTT1=
EXTT2=
EXTT3=
EXTT4=
EXTT5=
EXTT6=
EXTT7=
EXTT8=
EXTT9=
EXTT10=
EXTT11=
EXTT12=
EXTT13=
EXTT14=
EXTT15=
EXTT16=
EXTT17=
PLAYORDER=
